<svg width="1em" height="1em" viewBox="0 0 16 17" fill="none" xmlns="http://www.w3.org/2000/svg">
<path d="M5.4353 2.44599C5.55155 2.18764 5.8085 2.02148 6.0918 2.02148H9.88764C10.1689 2.02148 10.4245 2.18535 10.5419 2.441L11.5334 4.60066C11.5444 4.62454 11.5539 4.64871 11.5621 4.67308L14.4786 4.67308C14.8762 4.67308 15.1985 4.99538 15.1985 5.39296C15.1985 5.79054 14.8762 6.11285 14.4786 6.11285H13.002C13.0259 6.18448 13.0388 6.26113 13.0388 6.34079V14.2595C13.0388 14.6571 12.7165 14.9794 12.3189 14.9794H3.68032C3.28274 14.9794 2.96044 14.6571 2.96044 14.2595V6.34079C2.96044 6.26113 2.97338 6.18448 2.99727 6.11285H1.52067C1.12308 6.11285 0.800781 5.79054 0.800781 5.39296C0.800781 4.99538 1.12308 4.67308 1.52067 4.67308L4.43719 4.67308C4.44479 4.65041 4.45358 4.62791 4.4636 4.60564L5.4353 2.44599ZM6.01205 4.67308L9.98238 4.67308L9.42601 3.46125H6.55729L6.01205 4.67308ZM4.36337 6.11285C4.38726 6.18448 4.40021 6.26113 4.40021 6.34079V13.5396H11.5991V6.34079C11.5991 6.26113 11.612 6.18448 11.6359 6.11285H4.36337ZM6.55986 7.57986C6.95744 7.57986 7.27974 7.90216 7.27974 8.29974V11.38C7.27974 11.7776 6.95744 12.0999 6.55986 12.0999C6.16228 12.0999 5.83997 11.7776 5.83997 11.38V8.29974C5.83997 7.90216 6.16228 7.57986 6.55986 7.57986ZM9.4394 7.57986C9.83698 7.57986 10.1593 7.90216 10.1593 8.29974V11.38C10.1593 11.7776 9.83698 12.0999 9.4394 12.0999C9.04182 12.0999 8.71951 11.7776 8.71951 11.38V8.29974C8.71951 7.90216 9.04182 7.57986 9.4394 7.57986Z" fill="currentColor"/>
</svg>
