<svg width="1em" height="1em" viewBox="0 0 16 16" fill="none" xmlns="http://www.w3.org/2000/svg">
<circle cx="4.2" cy="3.67998" r="2.7" fill="currentColor"/>
<path d="M15 12.3201C15 13.8113 13.7911 15.0201 12.3 15.0201C10.8088 15.0201 9.59998 13.8113 9.59998 12.3201C9.59998 10.8289 10.8088 9.62012 12.3 9.62012C13.7911 9.62012 15 10.8289 15 12.3201Z" fill="currentColor"/>
<path d="M10.6801 6.37998L7.44006 3.67998L10.6801 0.97998V2.59998H13.4601C14.0123 2.59998 14.4601 3.0477 14.4601 3.59998V7.99998H12.8401V4.75998H10.6801V6.37998Z" fill="currentColor"/>
<path d="M5.81994 9.62002L9.05994 12.32L5.81994 15.02V13.4H3.03994C2.48765 13.4 2.03994 12.9523 2.03994 12.4V8.00002H3.65994V11.24H5.81994V9.62002Z" fill="currentColor"/>
</svg>
