<svg width="1em" height="1em" viewBox="0 0 16 16" fill="none" xmlns="http://www.w3.org/2000/svg">
<path fill-rule="evenodd" clip-rule="evenodd" d="M6.42513 2.01514H9.57513C10.271 2.01514 10.8351 2.57926 10.8351 3.27514V3.90514H13.3551C14.051 3.90514 14.6151 4.46925 14.6151 5.16514V7.68514C14.6151 8.27226 14.2136 8.76557 13.6701 8.90544V12.4101C13.6701 13.28 12.965 13.9851 12.0951 13.9851H3.90513C3.03529 13.9851 2.33013 13.28 2.33013 12.4101V8.90544C1.78669 8.76557 1.38513 8.27226 1.38513 7.68514V5.16514C1.38513 4.46924 1.94926 3.90514 2.64513 3.90514H5.16513V3.27514C5.16513 2.57926 5.72924 2.01514 6.42513 2.01514ZM9.57513 3.90514V3.27514H6.42513V3.90514H9.57513ZM2.64513 5.16514V7.68514H4.5351C4.5351 7.3372 4.81716 7.05506 5.1651 7.05506C5.51304 7.05506 5.7951 7.33712 5.7951 7.68506L10.2051 7.68514C10.2051 7.3372 10.4872 7.05506 10.8351 7.05506C11.183 7.05506 11.4651 7.33712 11.4651 7.68506L13.3551 7.68514V5.16514H2.64513ZM10.2051 8.94514H5.7951V9.57506C5.7951 9.923 5.51304 10.2051 5.1651 10.2051C4.81716 10.2051 4.5351 9.923 4.5351 9.57506V8.94514H3.59013V12.4101C3.59013 12.5841 3.73116 12.7251 3.90513 12.7251H12.0951C12.2691 12.7251 12.4101 12.5841 12.4101 12.4101V8.94514H11.4651V9.57506C11.4651 9.923 11.183 10.2051 10.8351 10.2051C10.4872 10.2051 10.2051 9.923 10.2051 9.57506V8.94514Z" fill="currentColor"/>
</svg>
