<svg width="1em" height="1em" viewBox="0 0 20 20" fill="none" xmlns="http://www.w3.org/2000/svg">
<path d="M5.01415 2.0835C4.55392 2.0835 4.18082 2.45659 4.18082 2.91683V5.62578H2.91414C2.45391 5.62578 2.08081 5.99887 2.08081 6.45911V17.0835C2.08081 17.5438 2.45391 17.9169 2.91414 17.9169H13.5417C14.0019 17.9169 14.375 17.5438 14.375 17.0835V15.7735H17.0856C17.5458 15.7735 17.9189 15.4004 17.9189 14.9401V2.91683C17.9189 2.45659 17.5458 2.0835 17.0856 2.0835H5.01415ZM14.375 14.1068V6.45911C14.375 5.99887 14.0019 5.62578 13.5417 5.62578H5.84748V3.75016H16.2523V14.1068H14.375ZM3.74747 16.2502V7.29244H12.7084V16.2502H3.74747Z" fill="currentColor"/>
</svg>
