<svg width="1em" height="1em" viewBox="0 0 20 20" fill="none" xmlns="http://www.w3.org/2000/svg">
<path d="M2.41797 3.53141C2.41797 3.02515 2.82837 2.61475 3.33464 2.61475H16.668C17.1742 2.61475 17.5846 3.02515 17.5846 3.53141C17.5846 4.03767 17.1742 4.44808 16.668 4.44808L3.33464 4.44808C2.82837 4.44808 2.41797 4.03767 2.41797 3.53141Z" fill="currentColor"/>
<path d="M2.41797 9.36475C2.41797 8.85849 2.82837 8.44808 3.33464 8.44808L13.7212 8.44808C15.8549 8.44808 17.5846 10.1778 17.5846 12.3115C17.5846 14.4452 15.8549 16.1749 13.7212 16.1749H13.1571C13.0944 16.1749 13.0332 16.1686 12.974 16.1566V17.2032C12.974 17.3541 12.8008 17.4393 12.6813 17.3473L10.0723 15.3389C9.97775 15.2661 9.97775 15.1235 10.0723 15.0507L12.6813 13.0423C12.8008 12.9503 12.974 13.0355 12.974 13.1864V14.3598C13.0332 14.3478 13.0944 14.3415 13.1571 14.3415H13.7212C14.8424 14.3415 15.7513 13.4326 15.7513 12.3115C15.7513 11.1903 14.8424 10.2814 13.7212 10.2814L3.33464 10.2814C2.82837 10.2814 2.41797 9.87101 2.41797 9.36475Z" fill="currentColor"/>
<path d="M2.41797 15.1948C2.41797 14.6886 2.82837 14.2782 3.33464 14.2782L7.48706 14.2782C7.99332 14.2782 8.40373 14.6886 8.40373 15.1948C8.40373 15.7011 7.99332 16.1115 7.48706 16.1115H3.33464C2.82837 16.1115 2.41797 15.7011 2.41797 15.1948Z" fill="currentColor"/>
</svg>
