<svg width="1em" height="1em" viewBox="0 0 20 20" fill="none" xmlns="http://www.w3.org/2000/svg">
<path d="M8.03243 3.33325C8.25344 3.33325 8.4654 3.42105 8.62168 3.57733L9.80019 4.75584C9.95647 4.91212 10.1684 4.99992 10.3894 4.99992H17.5443C18.0045 4.99992 18.3776 5.37301 18.3776 5.83325V15.8333C18.3776 16.2935 18.0045 16.6666 17.5443 16.6666H2.54427C2.08403 16.6666 1.71094 16.2935 1.71094 15.8333V4.16659C1.71094 3.70635 2.08403 3.33325 2.54427 3.33325H8.03243Z" fill="#3477EB"/>
<path d="M3.37695 8.75C3.37695 8.05964 3.9366 7.5 4.62695 7.5H15.4603C16.1506 7.5 16.7103 8.05964 16.7103 8.75H3.37695Z" fill="white"/>
</svg>
