<svg width="32" height="32" viewBox="0 0 32 32" fill="none" xmlns="http://www.w3.org/2000/svg">
<mask id="mask0_53_1050" style="mask-type:luminance" maskUnits="userSpaceOnUse" x="3" y="4" width="26" height="25">
<path d="M19.0562 4C24.3975 4 28.7377 8.16382 28.8239 13.3321L28.8252 13.489V19.126C28.8252 24.3142 24.5385 28.5299 19.2178 28.6137L19.0562 28.615H3.48379V14.6899C3.48379 13.6003 4.39318 12.717 5.51498 12.717C6.61838 12.717 7.51629 13.5716 7.54543 14.6365L7.54616 14.6899V24.6691H19.0562C22.1764 24.6691 24.7117 22.2367 24.7621 19.2177L24.7629 19.126V13.489C24.7629 10.4582 22.2588 7.9956 19.1506 7.94665L19.0562 7.94591H13.4801C12.3583 7.94591 11.4489 7.06259 11.4489 5.97296C11.4489 4.90119 12.3287 4.02902 13.4251 4.00071L13.4801 4H19.0562Z" fill="white"/>
</mask>
<g mask="url(#mask0_53_1050)">
<path d="M19.0563 4C24.3976 4 28.7377 8.16382 28.824 13.3321L28.8253 13.489V19.126C28.8253 23.6517 25.5634 27.4375 21.1987 28.3861C21.3926 28.3437 21.5843 28.2959 21.7737 28.2427C23.6354 26.1003 24.7576 23.3317 24.7576 20.3086C24.7576 20.1349 24.7539 19.9621 24.7466 19.7903L24.7391 19.6364C24.7521 19.4982 24.7598 19.3586 24.7622 19.2177L24.7629 19.126V13.489C24.7629 13.3238 24.7555 13.1602 24.7409 12.9987C24.752 12.8192 24.7576 12.6382 24.7576 12.4559C24.7576 8.56774 22.1979 5.26025 18.6261 4.03656L18.5175 4.00012L13.4775 4.00041L13.4225 4.00112L13.3521 4.00411C13.3775 4.00234 13.4013 4.00133 13.4251 4.00071L13.4801 4H19.0563Z" fill="url(#paint0_linear_53_1050)"/>
</g>
<path d="M5.13707 12.751C4.21296 12.9199 3.50973 13.6967 3.48447 14.6374L3.48376 14.6899L3.48374 22.1576C4.45498 23.3916 5.84633 24.2946 7.44782 24.6481L7.54346 24.6684L7.57775 24.6696L19.0535 24.6694C22.0344 24.6694 24.4832 22.467 24.7397 19.6363C24.7527 19.8645 24.7575 20.077 24.7575 20.3085C24.7575 23.3316 23.6353 26.1002 21.7736 28.2426C20.9593 28.4714 20.1015 28.6001 19.2151 28.6141L19.0535 28.6153H3.48109V14.6903C3.48109 13.739 4.17419 12.945 5.09662 12.7587L5.13707 12.751Z" fill="#82B0FF"/>
<path d="M18.5173 4C22.1457 5.19337 24.7574 8.52834 24.7574 12.4558C24.7574 12.6438 24.7525 12.8134 24.7407 12.9985C24.4958 10.1889 22.0923 7.99331 19.1478 7.94694L19.0534 7.9462H13.4773C12.3555 7.9462 11.4461 7.06288 11.4461 5.97324C11.4461 4.90147 12.3259 4.0293 13.4223 4.001L13.4773 4.00029L18.5173 4Z" fill="#82B0FF"/>
<path d="M5.51491 12.7168C6.61831 12.7168 7.51622 13.5714 7.54537 14.6363L7.5461 14.6898V24.6689C5.90326 24.3313 4.47476 23.4167 3.48371 22.1575L3.48373 14.6898C3.48373 13.6001 4.39312 12.7168 5.51491 12.7168Z" fill="url(#paint1_linear_53_1050)"/>
<path d="M8.23438 4.65771C8.61973 4.65771 8.93246 4.95937 8.93262 5.33154V7.20361C8.93262 8.71 9.65445 10.1251 10.874 11.0093C11.5895 11.5279 12.4351 11.8321 13.3125 11.8921H20.4902C20.7663 11.8921 20.9902 12.1161 20.9902 12.3921V20.2505C20.9901 20.5264 20.7662 20.7495 20.4902 20.7495H11.8184C11.5424 20.7495 11.3185 20.5264 11.3184 20.2505V14.3735C11.1236 13.1071 10.419 11.9622 9.34766 11.2222C8.5638 10.6807 7.63336 10.3908 6.68066 10.3901L3.69824 10.3882C3.31279 10.3882 3 10.0857 3 9.71338V5.33154C3.00016 4.95937 3.31289 4.65771 3.69824 4.65771H8.23438Z" fill="url(#paint2_linear_53_1050)"/>
<defs>
<linearGradient id="paint0_linear_53_1050" x1="11.8391" y1="10.3139" x2="28.3061" y2="28.8474" gradientUnits="userSpaceOnUse">
<stop stop-color="#4187FF"/>
<stop offset="0.340008" stop-color="#1A67FF"/>
<stop offset="1" stop-color="#4D49D1"/>
</linearGradient>
<linearGradient id="paint1_linear_53_1050" x1="0.795457" y1="14.8266" x2="10.0923" y2="19.0086" gradientUnits="userSpaceOnUse">
<stop stop-color="#7AB4FF"/>
<stop offset="0.54277" stop-color="#1A67FF"/>
<stop offset="1" stop-color="#4D49D1"/>
</linearGradient>
<linearGradient id="paint2_linear_53_1050" x1="-16.2161" y1="9.69506" x2="6.50417" y2="37.4354" gradientUnits="userSpaceOnUse">
<stop stop-color="#7AB4FF"/>
<stop offset="0.352463" stop-color="#1A67FF"/>
<stop offset="1" stop-color="#5B41F8"/>
</linearGradient>
</defs>
</svg>
